<svg xmlns="http://www.w3.org/2000/svg" xmlns:xlink="http://www.w3.org/1999/xlink" width="119" height="52" viewBox="0 0 119 52">
    <defs>
        <path id="171ayruwra" d="M0 0.049L25.087 0.049 25.087 28.495 0 28.495z"/>
        <path id="jtgwgv1qkc" d="M0.009 0.08L11.656 0.08 11.656 17.77 0.009 17.77z"/>
    </defs>
    <g fill="none" fill-rule="evenodd">
        <g transform="translate(0 22.75)">
            <mask id="d41jutq1db" fill="#fff">
                <use xlink:href="#171ayruwra"/>
            </mask>
            <path fill="#151515" d="M16.594 28.495V10.8c0-1.12-.186-1.996-.558-2.632-.373-.634-1.044-.951-2.012-.951-.745 0-1.452.215-2.123.643-.67.43-1.257 1.008-1.76 1.736-.503.728-.904 1.56-1.201 2.492-.299.934-.447 1.904-.447 2.912v13.495H0V.665h7.934c0 .523-.02 1.213-.056 2.072-.037.859-.13 1.624-.28 2.296l.057.056c.856-1.456 2.048-2.66 3.576-3.612C12.757.525 14.639.049 16.874.049c1.564 0 2.868.234 3.91.7 1.043.467 1.881 1.102 2.515 1.904.633.803 1.09 1.745 1.37 2.828.278 1.083.418 2.221.418 3.415v19.599h-8.493z" mask="url(#d41jutq1db)"/>
        </g>
        <path fill="#151515" d="M46.04 33.942c.073-1.68-.252-2.92-.979-3.724-.726-.802-1.704-1.203-2.933-1.203-1.23 0-2.254.439-3.073 1.315-.82.878-1.304 2.082-1.453 3.612h8.437zm8.38.896c0 .672-.028 1.456-.084 2.352-.055.896-.14 1.68-.251 2.352H37.602c.037 1.792.577 3.192 1.62 4.2 1.043 1.007 2.794 1.511 5.253 1.511 2.718 0 5.438-.54 8.157-1.623l.838 6.383c-1.602.598-3.306 1.055-5.112 1.372-1.807.317-3.567.476-5.28.476-4.545 0-8.028-1.138-10.448-3.416-2.422-2.277-3.632-5.88-3.632-10.807 0-2.09.307-4.04.922-5.852.614-1.81 1.499-3.378 2.654-4.703 1.154-1.325 2.579-2.37 4.274-3.136 1.695-.765 3.604-1.148 5.727-1.148 2.086 0 3.874.308 5.364.924 1.49.616 2.719 1.465 3.688 2.548.968 1.083 1.676 2.361 2.123 3.835.447 1.476.67 3.052.67 4.732zM90.57 51.245h-9.05l-3.074-9.687c-.522-1.941-1.061-4.163-1.62-6.664h-.056c-.26 1.307-.54 2.511-.838 3.612-.299 1.101-.615 2.23-.95 3.387l-2.794 9.352H63.64l-8.437-27.83h9.275l2.123 7.727c.372 1.42.754 2.866 1.145 4.34.392 1.475.773 3.052 1.146 4.732h.112c.297-1.717.614-3.266.95-4.648.335-1.38.707-2.724 1.117-4.032l2.403-8.119h7.878l2.458 7.727 1.285 4.508c.41 1.438.763 2.977 1.062 4.62h.111c.298-1.643.605-3.164.922-4.564.317-1.4.661-2.79 1.034-4.172l2.29-8.119h8.717l-8.66 27.83zM118.786 42.342c0 1.455-.298 2.771-.894 3.947-.596 1.176-1.443 2.175-2.542 2.996-1.099.822-2.421 1.456-3.967 1.904-1.546.448-3.268.672-5.168.672-2.235 0-4.284-.262-6.146-.784l.447-6.944c1.713.748 3.65 1.12 5.81 1.12 1.08 0 1.919-.196 2.515-.588.596-.392.894-.924.894-1.596 0-.671-.251-1.203-.754-1.595-.503-.392-1.137-.737-1.9-1.036-.764-.299-1.584-.616-2.458-.952-.876-.336-1.696-.803-2.459-1.4-.764-.597-1.397-1.372-1.9-2.324-.502-.952-.754-2.193-.754-3.724 0-1.268.24-2.472.722-3.611.481-1.139 1.222-2.128 2.221-2.968.999-.84 2.267-1.502 3.804-1.988 1.536-.485 3.366-.728 5.49-.728.744 0 1.545.047 2.402.14.856.094 1.676.215 2.458.364l-.279 6.663c-.708-.26-1.48-.448-2.319-.56-.838-.111-1.667-.168-2.486-.168-1.08 0-1.881.196-2.403.588-.522.392-.782.906-.782 1.54 0 .598.262 1.084.787 1.456.523.374 1.17.728 1.938 1.064.767.336 1.6.691 2.5 1.064.898.374 1.73.86 2.499 1.456.767.598 1.413 1.372 1.938 2.324.524.952.786 2.175.786 3.668M8.548 5.63c-.139-.431-.272-.846-.402-1.244-.129-.398-.237-.779-.323-1.142H7.77c-.086.363-.19.744-.31 1.142-.121.398-.25.804-.389 1.219L4.976 11.57h5.668L8.548 5.63zm4.14 12.063l-1.32-3.865H4.278L2.93 17.693H.084L6.296.183H9.53l6.29 17.51h-3.132zM17.477 17.693L17.477.183 20.324.183 20.324 15.228 26.329 15.228 26.329 17.693z"/>
        <path fill="#151515" d="M34.766 5.63l-.4-1.244c-.13-.398-.238-.779-.324-1.142h-.052c-.087.363-.19.744-.31 1.142-.122.398-.251.804-.389 1.219l-2.096 5.966h5.668l-2.097-5.94zm4.142 12.063l-1.32-3.865h-7.092l-1.346 3.865h-2.847L32.515.183h3.235l6.29 17.51h-3.132zM51.539 5.138c0-.968-.292-1.669-.876-2.101-.584-.432-1.468-.649-2.652-.649-.292 0-.558.005-.799.013-.24.009-.463.022-.669.04v5.55c.137.018.322.03.553.04.232.008.503.012.812.012 1.133 0 2.02-.263 2.665-.791.644-.528.966-1.232.966-2.114zm.577 12.555l-5.263-7.575h-.31v7.575h-2.847V.183c.638-.034 1.333-.06 2.084-.078.75-.016 1.617-.025 2.6-.025.898 0 1.722.086 2.473.259.75.173 1.397.445 1.94.817.544.372.963.86 1.256 1.466.293.605.44 1.34.44 2.204 0 .71-.125 1.345-.374 1.907-.25.562-.59 1.055-1.02 1.479-.43.424-.932.765-1.508 1.024-.577.26-1.191.424-1.845.493.24.311.49.627.748.947.258.32.49.627.697.92l4.44 6.097h-3.511z"/>
        <path fill="#151515" d="M63.833 5.63c-.138-.431-.272-.846-.402-1.244-.129-.398-.237-.779-.323-1.142h-.052c-.086.363-.19.744-.31 1.142-.121.398-.25.804-.388 1.219L60.26 11.57h5.668l-2.096-5.94zm4.141 12.063l-1.32-3.865h-7.092l-1.346 3.865H55.37L61.581.183h3.235l6.29 17.51h-3.132z"/>
        <g transform="translate(72.754)">
            <mask id="hdvv7gofdd" fill="#fff">
                <use xlink:href="#jtgwgv1qkc"/>
            </mask>
            <path fill="#151515" d="M8.654 12.517c0-.99-.383-1.702-1.147-2.137-.765-.434-1.8-.65-3.105-.65H3.68c-.154 0-.305.004-.45.012-.147.009-.271.013-.374.013v5.629c.223.034.537.065.94.09.404.027.778.04 1.121.04 1.289 0 2.233-.282 2.835-.847.6-.565.902-1.281.902-2.15m-.492-7.716c0-.71-.232-1.297-.696-1.764-.463-.467-1.296-.7-2.498-.7-.378 0-.747.004-1.108.012-.36.01-.695.022-1.004.04v5.213c.24.018.476.026.708.026h.786c1.305 0 2.266-.25 2.885-.752.618-.502.927-1.193.927-2.075m3.494 7.592c0 .624-.116 1.256-.35 1.897-.232.64-.62 1.22-1.164 1.74-.544.52-1.255.94-2.135 1.26-.88.32-1.968.48-3.262.48-.604 0-1.298-.009-2.083-.025-.786-.018-1.67-.035-2.653-.052V.157C.699.14 1.51.123 2.442.106 3.374.088 4.374.08 5.444.08c1.88 0 3.3.372 4.258 1.117.958.744 1.436 1.792 1.436 3.143 0 .9-.245 1.706-.737 2.416S9.206 7.994 8.29 8.34v.052c1.018.174 1.834.624 2.446 1.351.612.728.92 1.611.92 2.65" mask="url(#hdvv7gofdd)"/>
        </g>
        <path fill="#151515" d="M87.308 17.693L90.155 17.693 90.155.183 87.308.183zM99.887 11.441v6.252H97.04V11.44L91.58.183h3.08l2.59 5.526c.47 1.037.888 2.023 1.254 2.957h.052c.192-.52.414-1.055.666-1.609.253-.553.518-1.106.796-1.66l2.459-5.214h2.976l-5.565 11.258zM111.638 5.63l-.401-1.244c-.13-.398-.237-.779-.323-1.142h-.052c-.087.363-.19.744-.31 1.142-.122.398-.251.804-.39 1.219l-2.096 5.966h5.669l-2.097-5.94zm4.142 12.063l-1.32-3.865h-7.092l-1.346 3.865h-2.847l6.211-17.51h3.236l6.29 17.51h-3.132z"/>
    </g>
</svg>
